{
    "asset" : {
        "generator" : "Khronos glTF Blender I/O v1.8.13",
        "version" : "2.0"
    },
    "scene" : 0,
    "scenes" : [
        {
            "name" : "Scene",
            "nodes" : [
                0,
                1,
                2,
                3,
                6,
                7,
                8
            ]
        }
    ],
    "nodes" : [
        {
            "mesh" : 0,
            "name" : "Cube",
            "translation" : [
                0,
                15,
                0
            ]
        },
        {
            "mesh" : 1,
            "name" : "Sphere",
            "translation" : [
                -2.698185920715332,
                9.163942337036133,
                2.9642043113708496
            ]
        },
        {
            "mesh" : 2,
            "name" : "Cone",
            "translation" : [
                2.5841782093048096,
                4.543968677520752,
                -2.850196599960327
            ]
        },
        {
            "mesh" : 3,
            "name" : "Suzanne"
        },
        {
            "camera" : 0,
            "name" : "Camera_app_Orientation",
            "rotation" : [
                -0.7071067690849304,
                0,
                0,
                0.7071067690849304
            ]
        },
        {
            "children" : [
                4
            ],
            "name" : "Camera_app",
            "rotation" : [
                0.5,
                0.5,
                -0.5,
                0.4999999701976776
            ]
        },
        {
            "children" : [
                5
            ],
            "name" : "Camera",
            "translation" : [
                5.243164539337158,
                15.040226936340332,
                0.009631037712097168
            ]
        },
        {
            "mesh" : 4,
            "name" : "Sphere.002",
            "rotation" : [
                0.5398668050765991,
                -0.4566660225391388,
                0.5398667454719543,
                0.4566660523414612
            ],
            "scale" : [
                0.039310257881879807,
                0.0393102653324604,
                0.0393102653324604
            ],
            "translation" : [
                -1.154651165008545,
                12.900484085083008,
                0.7125634551048279
            ]
        },
        {
            "mesh" : 5,
            "name" : "Sphere.001",
            "scale" : [
                100,
                100,
                100
            ]
        }
    ],
    "cameras" : [
        {
            "name" : "Camera",
            "perspective" : {
                "aspectRatio" : 1.7777777777777777,
                "yfov" : 0.39959648408210363,
                "zfar" : 1000,
                "znear" : 0.10000000149011612
            },
            "type" : "perspective"
        }
    ],
    "animations" : [
        {
            "channels" : [
                {
                    "sampler" : 0,
                    "target" : {
                        "node" : 6,
                        "path" : "translation"
                    }
                },
                {
                    "sampler" : 1,
                    "target" : {
                        "node" : 6,
                        "path" : "rotation"
                    }
                },
                {
                    "sampler" : 2,
                    "target" : {
                        "node" : 6,
                        "path" : "scale"
                    }
                }
            ],
            "name" : "CameraAction",
            "samplers" : [
                {
                    "input" : 24,
                    "interpolation" : "LINEAR",
                    "output" : 25
                },
                {
                    "input" : 24,
                    "interpolation" : "LINEAR",
                    "output" : 26
                },
                {
                    "input" : 27,
                    "interpolation" : "LINEAR",
                    "output" : 28
                }
            ]
        }
    ],
    "materials" : [
        {
            "doubleSided" : true,
            "name" : "Cube",
            "pbrMetallicRoughness" : {
                "baseColorFactor" : [
                    0.9822507500648499,
                    0.5028864741325378,
                    0.043735072016716,
                    1
                ],
                "metallicFactor" : 0,
                "roughnessFactor" : 0.5
            }
        },
        {
            "doubleSided" : true,
            "name" : "Sphere",
            "pbrMetallicRoughness" : {
                "baseColorFactor" : [
                    0.9734455347061157,
                    0.23455047607421875,
                    0.015208534896373749,
                    1
                ],
                "metallicFactor" : 0,
                "roughnessFactor" : 0.5
            }
        },
        {
            "doubleSided" : true,
            "name" : "Cone",
            "pbrMetallicRoughness" : {
                "baseColorFactor" : [
                    0.01032981276512146,
                    0.14412856101989746,
                    0.13563339412212372,
                    1
                ],
                "metallicFactor" : 0,
                "roughnessFactor" : 0.5
            }
        },
        {
            "doubleSided" : true,
            "name" : "Suzane",
            "pbrMetallicRoughness" : {
                "baseColorFactor" : [
                    0.00856812670826912,
                    0.059511251747608185,
                    0.059511248022317886,
                    1
                ],
                "metallicFactor" : 0,
                "roughnessFactor" : 0.5
            }
        },
        {
            "doubleSided" : true,
            "name" : "Drop",
            "pbrMetallicRoughness" : {
                "baseColorFactor" : [
                    0.8000000715255737,
                    0.23995335400104523,
                    0.40531986951828003,
                    1
                ],
                "metallicFactor" : 0,
                "roughnessFactor" : 0.5
            }
        },
        {
            "doubleSided" : true,
            "name" : "Material.001",
            "pbrMetallicRoughness" : {
                "baseColorFactor" : [
                    0.0006070518866181374,
                    0.009134061634540558,
                    0.013702084310352802,
                    1
                ],
                "metallicFactor" : 0,
                "roughnessFactor" : 0.5
            }
        }
    ],
    "meshes" : [
        {
            "name" : "Cube",
            "primitives" : [
                {
                    "attributes" : {
                        "POSITION" : 0,
                        "NORMAL" : 1,
                        "TEXCOORD_0" : 2
                    },
                    "indices" : 3,
                    "material" : 0
                }
            ]
        },
        {
            "name" : "Sphere",
            "primitives" : [
                {
                    "attributes" : {
                        "POSITION" : 4,
                        "NORMAL" : 5,
                        "TEXCOORD_0" : 6
                    },
                    "indices" : 7,
                    "material" : 1
                }
            ]
        },
        {
            "name" : "Cone",
            "primitives" : [
                {
                    "attributes" : {
                        "POSITION" : 8,
                        "NORMAL" : 9,
                        "TEXCOORD_0" : 10
                    },
                    "indices" : 11,
                    "material" : 2
                }
            ]
        },
        {
            "name" : "Suzanne",
            "primitives" : [
                {
                    "attributes" : {
                        "POSITION" : 12,
                        "NORMAL" : 13,
                        "TEXCOORD_0" : 14
                    },
                    "indices" : 15,
                    "material" : 3
                }
            ]
        },
        {
            "name" : "Sphere.001",
            "primitives" : [
                {
                    "attributes" : {
                        "POSITION" : 16,
                        "NORMAL" : 17,
                        "TEXCOORD_0" : 18
                    },
                    "indices" : 19,
                    "material" : 4
                }
            ]
        },
        {
            "name" : "Sphere.002",
            "primitives" : [
                {
                    "attributes" : {
                        "POSITION" : 20,
                        "NORMAL" : 21,
                        "TEXCOORD_0" : 22
                    },
                    "indices" : 23,
                    "material" : 5
                }
            ]
        }
    ],
    "accessors" : [
        {
            "bufferView" : 0,
            "componentType" : 5126,
            "count" : 24,
            "max" : [
                0.7037860155105591,
                0.5,
                0.7037860155105591
            ],
            "min" : [
                -0.7037860155105591,
                -0.5,
                -0.7037860155105591
            ],
            "type" : "VEC3"
        },
        {
            "bufferView" : 1,
            "componentType" : 5126,
            "count" : 24,
            "type" : "VEC3"
        },
        {
            "bufferView" : 2,
            "componentType" : 5126,
            "count" : 24,
            "type" : "VEC2"
        },
        {
            "bufferView" : 3,
            "componentType" : 5123,
            "count" : 36,
            "type" : "SCALAR"
        },
        {
            "bufferView" : 4,
            "componentType" : 5126,
            "count" : 559,
            "max" : [
                0.5000001192092896,
                0.5,
                0.5000001788139343
            ],
            "min" : [
                -0.4999998211860657,
                -0.5,
                -0.49999985098838806
            ],
            "type" : "VEC3"
        },
        {
            "bufferView" : 5,
            "componentType" : 5126,
            "count" : 559,
            "type" : "VEC3"
        },
        {
            "bufferView" : 6,
            "componentType" : 5126,
            "count" : 559,
            "type" : "VEC2"
        },
        {
            "bufferView" : 7,
            "componentType" : 5123,
            "count" : 2880,
            "type" : "SCALAR"
        },
        {
            "bufferView" : 8,
            "componentType" : 5126,
            "count" : 65,
            "max" : [
                0.5,
                0.5,
                0.5
            ],
            "min" : [
                -0.5,
                -0.5,
                -0.5
            ],
            "type" : "VEC3"
        },
        {
            "bufferView" : 9,
            "componentType" : 5126,
            "count" : 65,
            "type" : "VEC3"
        },
        {
            "bufferView" : 10,
            "componentType" : 5126,
            "count" : 65,
            "type" : "VEC2"
        },
        {
            "bufferView" : 11,
            "componentType" : 5123,
            "count" : 186,
            "type" : "SCALAR"
        },
        {
            "bufferView" : 12,
            "componentType" : 5126,
            "count" : 2928,
            "max" : [
                0.4951775372028351,
                0.3507627844810486,
                0.307099848985672
            ],
            "min" : [
                -0.49517756700515747,
                -0.3624333143234253,
                -0.2906477153301239
            ],
            "type" : "VEC3"
        },
        {
            "bufferView" : 13,
            "componentType" : 5126,
            "count" : 2928,
            "type" : "VEC3"
        },
        {
            "bufferView" : 14,
            "componentType" : 5126,
            "count" : 2928,
            "type" : "VEC2"
        },
        {
            "bufferView" : 15,
            "componentType" : 5123,
            "count" : 11808,
            "type" : "SCALAR"
        },
        {
            "bufferView" : 16,
            "componentType" : 5126,
            "count" : 30200,
            "max" : [
                115.95783996582031,
                150.02857971191406,
                410.0812683105469
            ],
            "min" : [
                -149.45433044433594,
                -169.2562255859375,
                -120.34648895263672
            ],
            "type" : "VEC3"
        },
        {
            "bufferView" : 17,
            "componentType" : 5126,
            "count" : 30200,
            "type" : "VEC3"
        },
        {
            "bufferView" : 18,
            "componentType" : 5126,
            "count" : 30200,
            "type" : "VEC2"
        },
        {
            "bufferView" : 19,
            "componentType" : 5123,
            "count" : 134400,
            "type" : "SCALAR"
        },
        {
            "bufferView" : 20,
            "componentType" : 5126,
            "count" : 559,
            "max" : [
                0.9999997019767761,
                1,
                0.9999994039535522
            ],
            "min" : [
                -0.9999990463256836,
                -1,
                -0.9999987483024597
            ],
            "type" : "VEC3"
        },
        {
            "bufferView" : 21,
            "componentType" : 5126,
            "count" : 559,
            "type" : "VEC3"
        },
        {
            "bufferView" : 22,
            "componentType" : 5126,
            "count" : 559,
            "type" : "VEC2"
        },
        {
            "bufferView" : 23,
            "componentType" : 5123,
            "count" : 2880,
            "type" : "SCALAR"
        },
        {
            "bufferView" : 24,
            "componentType" : 5126,
            "count" : 90,
            "max" : [
                3.75
            ],
            "min" : [
                0.041666666666666664
            ],
            "type" : "SCALAR"
        },
        {
            "bufferView" : 25,
            "componentType" : 5126,
            "count" : 90,
            "type" : "VEC3"
        },
        {
            "bufferView" : 26,
            "componentType" : 5126,
            "count" : 90,
            "type" : "VEC4"
        },
        {
            "bufferView" : 27,
            "componentType" : 5126,
            "count" : 2,
            "max" : [
                3.75
            ],
            "min" : [
                0.041666666666666664
            ],
            "type" : "SCALAR"
        },
        {
            "bufferView" : 28,
            "componentType" : 5126,
            "count" : 2,
            "type" : "VEC3"
        }
    ],
    "bufferViews" : [
        {
            "buffer" : 0,
            "byteLength" : 288,
            "byteOffset" : 0
        },
        {
            "buffer" : 0,
            "byteLength" : 288,
            "byteOffset" : 288
        },
        {
            "buffer" : 0,
            "byteLength" : 192,
            "byteOffset" : 576
        },
        {
            "buffer" : 0,
            "byteLength" : 72,
            "byteOffset" : 768
        },
        {
            "buffer" : 0,
            "byteLength" : 6708,
            "byteOffset" : 840
        },
        {
            "buffer" : 0,
            "byteLength" : 6708,
            "byteOffset" : 7548
        },
        {
            "buffer" : 0,
            "byteLength" : 4472,
            "byteOffset" : 14256
        },
        {
            "buffer" : 0,
            "byteLength" : 5760,
            "byteOffset" : 18728
        },
        {
            "buffer" : 0,
            "byteLength" : 780,
            "byteOffset" : 24488
        },
        {
            "buffer" : 0,
            "byteLength" : 780,
            "byteOffset" : 25268
        },
        {
            "buffer" : 0,
            "byteLength" : 520,
            "byteOffset" : 26048
        },
        {
            "buffer" : 0,
            "byteLength" : 372,
            "byteOffset" : 26568
        },
        {
            "buffer" : 0,
            "byteLength" : 35136,
            "byteOffset" : 26940
        },
        {
            "buffer" : 0,
            "byteLength" : 35136,
            "byteOffset" : 62076
        },
        {
            "buffer" : 0,
            "byteLength" : 23424,
            "byteOffset" : 97212
        },
        {
            "buffer" : 0,
            "byteLength" : 23616,
            "byteOffset" : 120636
        },
        {
            "buffer" : 0,
            "byteLength" : 362400,
            "byteOffset" : 144252
        },
        {
            "buffer" : 0,
            "byteLength" : 362400,
            "byteOffset" : 506652
        },
        {
            "buffer" : 0,
            "byteLength" : 241600,
            "byteOffset" : 869052
        },
        {
            "buffer" : 0,
            "byteLength" : 268800,
            "byteOffset" : 1110652
        },
        {
            "buffer" : 0,
            "byteLength" : 6708,
            "byteOffset" : 1379452
        },
        {
            "buffer" : 0,
            "byteLength" : 6708,
            "byteOffset" : 1386160
        },
        {
            "buffer" : 0,
            "byteLength" : 4472,
            "byteOffset" : 1392868
        },
        {
            "buffer" : 0,
            "byteLength" : 5760,
            "byteOffset" : 1397340
        },
        {
            "buffer" : 0,
            "byteLength" : 360,
            "byteOffset" : 1403100
        },
        {
            "buffer" : 0,
            "byteLength" : 1080,
            "byteOffset" : 1403460
        },
        {
            "buffer" : 0,
            "byteLength" : 1440,
            "byteOffset" : 1404540
        },
        {
            "buffer" : 0,
            "byteLength" : 8,
            "byteOffset" : 1405980
        },
        {
            "buffer" : 0,
            "byteLength" : 24,
            "byteOffset" : 1405988
        }
    ],
    "buffers" : [
        {
            "byteLength" : 1406012,
            "uri" : "data:application/octet-stream;base64,"
        }
    ]
}
